<mxfile host="app.diagrams.net" modified="2024-04-23T11:13:00.668Z" agent="Mozilla/5.0 (Windows NT 10.0; Win64; x64) AppleWebKit/537.36 (KHTML, like Gecko) Chrome/124.0.0.0 Safari/537.36 Edg/124.0.0.0" etag="q9CB-uih7BqQiL0VSfE6" version="24.2.8" type="device" pages="2">
  <diagram name="Page-1" id="WDqh4Wc01TwqG7LLcD_d">
    <mxGraphModel dx="746" dy="459" grid="1" gridSize="10" guides="1" tooltips="1" connect="1" arrows="1" fold="1" page="1" pageScale="1" pageWidth="850" pageHeight="1100" math="0" shadow="0">
      <root>
        <mxCell id="0" />
        <mxCell id="1" parent="0" />
        <mxCell id="FOodc4Adf1fxbLuRoEp7-1" value="Procurador" style="whiteSpace=wrap;html=1;align=center;" vertex="1" parent="1">
          <mxGeometry x="10" y="50" width="100" height="40" as="geometry" />
        </mxCell>
        <mxCell id="FOodc4Adf1fxbLuRoEp7-2" value="Asunto" style="whiteSpace=wrap;html=1;align=center;" vertex="1" parent="1">
          <mxGeometry x="430" y="50" width="100" height="40" as="geometry" />
        </mxCell>
        <mxCell id="FOodc4Adf1fxbLuRoEp7-3" value="Cliente" style="whiteSpace=wrap;html=1;align=center;" vertex="1" parent="1">
          <mxGeometry x="430" y="310" width="100" height="40" as="geometry" />
        </mxCell>
        <mxCell id="FOodc4Adf1fxbLuRoEp7-4" value="Lleva" style="shape=rhombus;perimeter=rhombusPerimeter;whiteSpace=wrap;html=1;align=center;" vertex="1" parent="1">
          <mxGeometry x="205" y="40" width="120" height="60" as="geometry" />
        </mxCell>
        <mxCell id="FOodc4Adf1fxbLuRoEp7-5" value="Corresponde" style="shape=rhombus;perimeter=rhombusPerimeter;whiteSpace=wrap;html=1;align=center;" vertex="1" parent="1">
          <mxGeometry x="420" y="180" width="120" height="60" as="geometry" />
        </mxCell>
        <mxCell id="FOodc4Adf1fxbLuRoEp7-6" value="" style="endArrow=none;html=1;rounded=0;" edge="1" parent="1">
          <mxGeometry relative="1" as="geometry">
            <mxPoint x="200" y="70" as="sourcePoint" />
            <mxPoint x="120" y="70" as="targetPoint" />
          </mxGeometry>
        </mxCell>
        <mxCell id="FOodc4Adf1fxbLuRoEp7-7" value="n" style="resizable=0;html=1;whiteSpace=wrap;align=right;verticalAlign=bottom;" connectable="0" vertex="1" parent="FOodc4Adf1fxbLuRoEp7-6">
          <mxGeometry x="1" relative="1" as="geometry" />
        </mxCell>
        <mxCell id="FOodc4Adf1fxbLuRoEp7-10" value="" style="endArrow=none;html=1;rounded=0;exitX=1;exitY=0.5;exitDx=0;exitDy=0;" edge="1" parent="1" source="FOodc4Adf1fxbLuRoEp7-4">
          <mxGeometry relative="1" as="geometry">
            <mxPoint x="270" y="70" as="sourcePoint" />
            <mxPoint x="430" y="70" as="targetPoint" />
          </mxGeometry>
        </mxCell>
        <mxCell id="FOodc4Adf1fxbLuRoEp7-11" value="N" style="resizable=0;html=1;whiteSpace=wrap;align=right;verticalAlign=bottom;" connectable="0" vertex="1" parent="FOodc4Adf1fxbLuRoEp7-10">
          <mxGeometry x="1" relative="1" as="geometry" />
        </mxCell>
        <mxCell id="FOodc4Adf1fxbLuRoEp7-12" value="1" style="text;html=1;align=center;verticalAlign=middle;resizable=0;points=[];autosize=1;strokeColor=none;fillColor=none;" vertex="1" parent="1">
          <mxGeometry x="100" y="68" width="30" height="30" as="geometry" />
        </mxCell>
        <mxCell id="FOodc4Adf1fxbLuRoEp7-13" value="1" style="text;html=1;align=center;verticalAlign=middle;resizable=0;points=[];autosize=1;strokeColor=none;fillColor=none;" vertex="1" parent="1">
          <mxGeometry x="410" y="68" width="30" height="30" as="geometry" />
        </mxCell>
        <mxCell id="FOodc4Adf1fxbLuRoEp7-14" value="(n,m)" style="text;html=1;align=center;verticalAlign=middle;resizable=0;points=[];autosize=1;strokeColor=none;fillColor=none;" vertex="1" parent="1">
          <mxGeometry x="240" y="10" width="50" height="30" as="geometry" />
        </mxCell>
        <mxCell id="FOodc4Adf1fxbLuRoEp7-15" value="(1,n)" style="text;html=1;align=center;verticalAlign=middle;resizable=0;points=[];autosize=1;strokeColor=none;fillColor=none;" vertex="1" parent="1">
          <mxGeometry x="125" y="68" width="50" height="30" as="geometry" />
        </mxCell>
        <mxCell id="FOodc4Adf1fxbLuRoEp7-16" value="(1,n)" style="text;html=1;align=center;verticalAlign=middle;resizable=0;points=[];autosize=1;strokeColor=none;fillColor=none;" vertex="1" parent="1">
          <mxGeometry x="335" y="68" width="50" height="30" as="geometry" />
        </mxCell>
        <mxCell id="FOodc4Adf1fxbLuRoEp7-19" value="" style="line;strokeWidth=1;rotatable=0;dashed=0;labelPosition=right;align=left;verticalAlign=middle;spacingTop=0;spacingLeft=6;points=[];portConstraint=eastwest;direction=south;" vertex="1" parent="1">
          <mxGeometry x="475" y="90" width="10" height="90" as="geometry" />
        </mxCell>
        <mxCell id="FOodc4Adf1fxbLuRoEp7-22" value="" style="line;strokeWidth=1;rotatable=0;dashed=0;labelPosition=right;align=left;verticalAlign=middle;spacingTop=0;spacingLeft=6;points=[];portConstraint=eastwest;direction=south;" vertex="1" parent="1">
          <mxGeometry x="475" y="240" width="10" height="70" as="geometry" />
        </mxCell>
        <mxCell id="FOodc4Adf1fxbLuRoEp7-23" value="1" style="text;html=1;align=center;verticalAlign=middle;resizable=0;points=[];autosize=1;strokeColor=none;fillColor=none;" vertex="1" parent="1">
          <mxGeometry x="455" y="88" width="30" height="30" as="geometry" />
        </mxCell>
        <mxCell id="FOodc4Adf1fxbLuRoEp7-24" value="n" style="text;html=1;align=center;verticalAlign=middle;resizable=0;points=[];autosize=1;strokeColor=none;fillColor=none;" vertex="1" parent="1">
          <mxGeometry x="475" y="88" width="30" height="30" as="geometry" />
        </mxCell>
        <mxCell id="FOodc4Adf1fxbLuRoEp7-25" value="1" style="text;html=1;align=center;verticalAlign=middle;resizable=0;points=[];autosize=1;strokeColor=none;fillColor=none;" vertex="1" parent="1">
          <mxGeometry x="455" y="280" width="30" height="30" as="geometry" />
        </mxCell>
        <mxCell id="FOodc4Adf1fxbLuRoEp7-26" value="1" style="text;html=1;align=center;verticalAlign=middle;resizable=0;points=[];autosize=1;strokeColor=none;fillColor=none;" vertex="1" parent="1">
          <mxGeometry x="475" y="280" width="30" height="30" as="geometry" />
        </mxCell>
        <mxCell id="FOodc4Adf1fxbLuRoEp7-27" value="(1,n)" style="text;html=1;align=center;verticalAlign=middle;resizable=0;points=[];autosize=1;strokeColor=none;fillColor=none;" vertex="1" parent="1">
          <mxGeometry x="535" y="198" width="50" height="30" as="geometry" />
        </mxCell>
        <mxCell id="FOodc4Adf1fxbLuRoEp7-28" value="(1,n)" style="text;html=1;align=center;verticalAlign=middle;resizable=0;points=[];autosize=1;strokeColor=none;fillColor=none;" vertex="1" parent="1">
          <mxGeometry x="480" y="120" width="50" height="30" as="geometry" />
        </mxCell>
        <mxCell id="FOodc4Adf1fxbLuRoEp7-29" value="(1,1)" style="text;html=1;align=center;verticalAlign=middle;resizable=0;points=[];autosize=1;strokeColor=none;fillColor=none;" vertex="1" parent="1">
          <mxGeometry x="485" y="250" width="50" height="30" as="geometry" />
        </mxCell>
        <mxCell id="FOodc4Adf1fxbLuRoEp7-30" value="Nombre" style="ellipse;whiteSpace=wrap;html=1;align=center;" vertex="1" parent="1">
          <mxGeometry x="50" y="130" width="60" height="40" as="geometry" />
        </mxCell>
        <mxCell id="FOodc4Adf1fxbLuRoEp7-31" value="DNI" style="ellipse;whiteSpace=wrap;html=1;align=center;fontStyle=4;" vertex="1" parent="1">
          <mxGeometry y="130" width="40" height="40" as="geometry" />
        </mxCell>
        <mxCell id="FOodc4Adf1fxbLuRoEp7-32" value="Direccion" style="ellipse;whiteSpace=wrap;html=1;align=center;" vertex="1" parent="1">
          <mxGeometry x="125" y="130" width="65" height="40" as="geometry" />
        </mxCell>
        <mxCell id="FOodc4Adf1fxbLuRoEp7-33" value="Inicio" style="ellipse;whiteSpace=wrap;html=1;align=center;" vertex="1" parent="1">
          <mxGeometry x="570" y="130" width="45" height="40" as="geometry" />
        </mxCell>
        <mxCell id="FOodc4Adf1fxbLuRoEp7-34" value="ID" style="ellipse;whiteSpace=wrap;html=1;align=center;fontStyle=4;" vertex="1" parent="1">
          <mxGeometry x="570" y="10" width="45" height="40" as="geometry" />
        </mxCell>
        <mxCell id="FOodc4Adf1fxbLuRoEp7-35" value="Fin" style="ellipse;whiteSpace=wrap;html=1;align=center;" vertex="1" parent="1">
          <mxGeometry x="615" y="40" width="40" height="40" as="geometry" />
        </mxCell>
        <mxCell id="FOodc4Adf1fxbLuRoEp7-36" value="Estado" style="ellipse;whiteSpace=wrap;html=1;align=center;" vertex="1" parent="1">
          <mxGeometry x="607.5" y="88" width="55" height="40" as="geometry" />
        </mxCell>
        <mxCell id="FOodc4Adf1fxbLuRoEp7-37" value="Dni" style="ellipse;whiteSpace=wrap;html=1;align=center;fontStyle=4;" vertex="1" parent="1">
          <mxGeometry x="385" y="380" width="40" height="40" as="geometry" />
        </mxCell>
        <mxCell id="FOodc4Adf1fxbLuRoEp7-38" value="Direccion" style="ellipse;whiteSpace=wrap;html=1;align=center;" vertex="1" parent="1">
          <mxGeometry x="535" y="380" width="60" height="40" as="geometry" />
        </mxCell>
        <mxCell id="FOodc4Adf1fxbLuRoEp7-39" value="Nobre" style="ellipse;whiteSpace=wrap;html=1;align=center;" vertex="1" parent="1">
          <mxGeometry x="445" y="410" width="50" height="40" as="geometry" />
        </mxCell>
        <mxCell id="FOodc4Adf1fxbLuRoEp7-41" value="" style="endArrow=none;html=1;rounded=0;exitX=0.5;exitY=1;exitDx=0;exitDy=0;entryX=0.5;entryY=0;entryDx=0;entryDy=0;" edge="1" parent="1" source="FOodc4Adf1fxbLuRoEp7-1" target="FOodc4Adf1fxbLuRoEp7-31">
          <mxGeometry relative="1" as="geometry">
            <mxPoint x="40" y="120" as="sourcePoint" />
            <mxPoint x="200" y="120" as="targetPoint" />
          </mxGeometry>
        </mxCell>
        <mxCell id="FOodc4Adf1fxbLuRoEp7-42" value="" style="endArrow=none;html=1;rounded=0;exitX=0.5;exitY=1;exitDx=0;exitDy=0;entryX=0.5;entryY=0;entryDx=0;entryDy=0;" edge="1" parent="1" source="FOodc4Adf1fxbLuRoEp7-1" target="FOodc4Adf1fxbLuRoEp7-30">
          <mxGeometry relative="1" as="geometry">
            <mxPoint x="70" y="100" as="sourcePoint" />
            <mxPoint x="30" y="140" as="targetPoint" />
          </mxGeometry>
        </mxCell>
        <mxCell id="FOodc4Adf1fxbLuRoEp7-43" value="" style="endArrow=none;html=1;rounded=0;exitX=0.5;exitY=1;exitDx=0;exitDy=0;entryX=0;entryY=0;entryDx=0;entryDy=0;" edge="1" parent="1" source="FOodc4Adf1fxbLuRoEp7-1" target="FOodc4Adf1fxbLuRoEp7-32">
          <mxGeometry relative="1" as="geometry">
            <mxPoint x="70" y="100" as="sourcePoint" />
            <mxPoint x="90" y="140" as="targetPoint" />
          </mxGeometry>
        </mxCell>
        <mxCell id="FOodc4Adf1fxbLuRoEp7-44" value="" style="endArrow=none;html=1;rounded=0;entryX=0;entryY=1;entryDx=0;entryDy=0;" edge="1" parent="1" target="FOodc4Adf1fxbLuRoEp7-34">
          <mxGeometry relative="1" as="geometry">
            <mxPoint x="530" y="70" as="sourcePoint" />
            <mxPoint x="690" y="70" as="targetPoint" />
          </mxGeometry>
        </mxCell>
        <mxCell id="FOodc4Adf1fxbLuRoEp7-45" value="" style="endArrow=none;html=1;rounded=0;entryX=0;entryY=0.5;entryDx=0;entryDy=0;" edge="1" parent="1" target="FOodc4Adf1fxbLuRoEp7-35">
          <mxGeometry relative="1" as="geometry">
            <mxPoint x="530" y="70" as="sourcePoint" />
            <mxPoint x="587" y="54" as="targetPoint" />
          </mxGeometry>
        </mxCell>
        <mxCell id="FOodc4Adf1fxbLuRoEp7-46" value="" style="endArrow=none;html=1;rounded=0;entryX=0;entryY=0;entryDx=0;entryDy=0;exitX=1;exitY=0.5;exitDx=0;exitDy=0;" edge="1" parent="1" source="FOodc4Adf1fxbLuRoEp7-2" target="FOodc4Adf1fxbLuRoEp7-36">
          <mxGeometry relative="1" as="geometry">
            <mxPoint x="540" y="70" as="sourcePoint" />
            <mxPoint x="597" y="64" as="targetPoint" />
          </mxGeometry>
        </mxCell>
        <mxCell id="FOodc4Adf1fxbLuRoEp7-47" value="" style="endArrow=none;html=1;rounded=0;exitX=1;exitY=0.5;exitDx=0;exitDy=0;entryX=0.5;entryY=0;entryDx=0;entryDy=0;" edge="1" parent="1" source="FOodc4Adf1fxbLuRoEp7-2" target="FOodc4Adf1fxbLuRoEp7-33">
          <mxGeometry relative="1" as="geometry">
            <mxPoint x="560" y="100" as="sourcePoint" />
            <mxPoint x="558" y="110" as="targetPoint" />
          </mxGeometry>
        </mxCell>
        <mxCell id="FOodc4Adf1fxbLuRoEp7-48" value="" style="endArrow=none;html=1;rounded=0;entryX=1;entryY=0;entryDx=0;entryDy=0;exitX=0.5;exitY=1;exitDx=0;exitDy=0;" edge="1" parent="1" source="FOodc4Adf1fxbLuRoEp7-3" target="FOodc4Adf1fxbLuRoEp7-37">
          <mxGeometry relative="1" as="geometry">
            <mxPoint x="570" y="110" as="sourcePoint" />
            <mxPoint x="617" y="84" as="targetPoint" />
          </mxGeometry>
        </mxCell>
        <mxCell id="FOodc4Adf1fxbLuRoEp7-49" value="" style="endArrow=none;html=1;rounded=0;entryX=0.5;entryY=0;entryDx=0;entryDy=0;exitX=0.5;exitY=1;exitDx=0;exitDy=0;" edge="1" parent="1" source="FOodc4Adf1fxbLuRoEp7-3" target="FOodc4Adf1fxbLuRoEp7-39">
          <mxGeometry relative="1" as="geometry">
            <mxPoint x="580" y="120" as="sourcePoint" />
            <mxPoint x="627" y="94" as="targetPoint" />
          </mxGeometry>
        </mxCell>
        <mxCell id="FOodc4Adf1fxbLuRoEp7-50" value="" style="endArrow=none;html=1;rounded=0;entryX=0.5;entryY=0;entryDx=0;entryDy=0;exitX=0.5;exitY=1;exitDx=0;exitDy=0;" edge="1" parent="1" source="FOodc4Adf1fxbLuRoEp7-3" target="FOodc4Adf1fxbLuRoEp7-38">
          <mxGeometry relative="1" as="geometry">
            <mxPoint x="590" y="130" as="sourcePoint" />
            <mxPoint x="637" y="104" as="targetPoint" />
          </mxGeometry>
        </mxCell>
      </root>
    </mxGraphModel>
  </diagram>
  <diagram id="cy2bJc1380U3A_ejWOTj" name="Page-2">
    <mxGraphModel dx="746" dy="459" grid="1" gridSize="10" guides="1" tooltips="1" connect="1" arrows="1" fold="1" page="1" pageScale="1" pageWidth="850" pageHeight="1100" math="0" shadow="0">
      <root>
        <mxCell id="0" />
        <mxCell id="1" parent="0" />
      </root>
    </mxGraphModel>
  </diagram>
</mxfile>
